<?xml version="1.0" encoding="UTF-8" standalone="no"?>
<svg
   xmlns:dc="http://purl.org/dc/elements/1.1/"
   xmlns:cc="http://creativecommons.org/ns#"
   xmlns:rdf="http://www.w3.org/1999/02/22-rdf-syntax-ns#"
   xmlns:svg="http://www.w3.org/2000/svg"
   xmlns="http://www.w3.org/2000/svg"
   xmlns:sodipodi="http://sodipodi.sourceforge.net/DTD/sodipodi-0.dtd"
   xmlns:inkscape="http://www.inkscape.org/namespaces/inkscape"
   width="64.343048mm"
   height="64.34304mm"
   viewBox="0 0 64.343048 64.343039"
   version="1.1"
   id="svg8"
   sodipodi:docname="dossier_original.svg"
   inkscape:version="0.92.3 (2405546, 2018-03-11)">
  <sodipodi:namedview
     pagecolor="#ffffff"
     bordercolor="#666666"
     borderopacity="1"
     objecttolerance="10"
     gridtolerance="10"
     guidetolerance="10"
     inkscape:pageopacity="0"
     inkscape:pageshadow="2"
     inkscape:window-width="1859"
     inkscape:window-height="1025"
     id="namedview838"
     showgrid="false"
     inkscape:zoom="0.41591118"
     inkscape:cx="-699.78137"
     inkscape:cy="-237.27998"
     inkscape:window-x="61"
     inkscape:window-y="27"
     inkscape:window-maximized="1"
     inkscape:current-layer="svg8"
     fit-margin-top="0"
     fit-margin-left="0"
     fit-margin-right="0"
     fit-margin-bottom="0" />
  <defs
     id="defs2" />
  <metadata
     id="metadata5">
    <rdf:RDF>
      <cc:Work
         rdf:about="">
        <dc:format>image/svg+xml</dc:format>
        <dc:type
           rdf:resource="http://purl.org/dc/dcmitype/StillImage" />
        <dc:title></dc:title>
      </cc:Work>
    </rdf:RDF>
  </metadata>
  <g
     transform="translate(-107.15474,34.227557)"
     id="g842">
    <g
       id="g995">
      <path
         id="rect815"
         d="M 0.9999999,1.0000249 V 61.475919 H 49.381025 V 12.225179 L 38.155355,1.0000249 Z"
         style="opacity:1;vector-effect:none;fill:#f6dede;fill-opacity:1;stroke:#000000;stroke-width:2;stroke-linecap:round;stroke-linejoin:miter;stroke-miterlimit:4;stroke-dasharray:none;stroke-dashoffset:0;stroke-opacity:1;paint-order:normal"
         inkscape:connector-curvature="0" />
      <path
         id="rect821"
         d="M 49.381025,12.225179 H 38.155704 V 0.999859 Z"
         style="opacity:1;vector-effect:none;fill:#de8888;fill-opacity:1;stroke:#000000;stroke-width:2;stroke-linecap:round;stroke-linejoin:round;stroke-miterlimit:4;stroke-dasharray:none;stroke-dashoffset:0;stroke-opacity:1;paint-order:normal"
         inkscape:connector-curvature="0" />
      <path
         id="path840"
         d="M 7.301779,9.679797 V 61.262838"
         style="fill:none;stroke:#000000;stroke-width:2;stroke-linecap:butt;stroke-linejoin:miter;stroke-miterlimit:4;stroke-dasharray:2, 12;stroke-dashoffset:0;stroke-opacity:1"
         inkscape:connector-curvature="0" />
      <g
         transform="translate(62.23207,-68.836539)"
         id="g851">
        <rect
           style="opacity:1;vector-effect:none;fill:#df8989;fill-opacity:1;stroke:#000000;stroke-width:2;stroke-linecap:round;stroke-linejoin:round;stroke-miterlimit:4;stroke-dasharray:none;stroke-dashoffset:0;stroke-opacity:1;paint-order:normal"
           id="rect846"
           width="43.467262"
           height="17.008928"
           x="-48.380955"
           y="87.979164" />
        <g
           id="text844"
           style="font-style:normal;font-variant:normal;font-weight:normal;font-stretch:normal;font-size:15.37743759px;line-height:1.25;font-family:'Linux Libertine Initials O';-inkscape-font-specification:'Linux Libertine Initials O';letter-spacing:0px;word-spacing:0px;fill:#ffffff;fill-opacity:1;stroke:none;stroke-width:0.26458332"
           aria-label="PDF">
          <path
             id="path992"
             style="font-style:normal;font-variant:normal;font-weight:bold;font-stretch:normal;font-family:'Latin Modern Sans';-inkscape-font-specification:'Latin Modern Sans Bold';fill:#ffffff;fill-opacity:1;stroke-width:0.26458332"
             d="m -33.344559,94.469188 c 0,-2.321993 -1.506989,-3.321527 -3.875114,-3.321527 h -3.844359 c -0.553588,0 -0.738117,0.169152 -0.738117,0.738117 v 9.195712 c 0,0.55358 0.169152,0.73811 0.738117,0.73811 h 0.784249 c 0.584343,0 0.738117,-0.1999 0.738117,-0.73811 v -3.38304 h 2.337371 c 2.414257,0 3.859736,-1.014911 3.859736,-3.229262 z m -2.137463,0 c 0,1.030288 -0.169152,2.014444 -2.229729,2.014444 h -1.876047 v -4.013511 h 1.891425 c 2.014444,0 2.214351,0.922646 2.214351,1.999067 z"
             inkscape:connector-curvature="0" />
          <path
             id="path994"
             style="font-style:normal;font-variant:normal;font-weight:bold;font-stretch:normal;font-family:'Latin Modern Sans';-inkscape-font-specification:'Latin Modern Sans Bold';fill:#ffffff;fill-opacity:1;stroke-width:0.26458332"
             d="m -21.132951,96.560519 c 0,-1.214817 -0.199907,-2.706429 -1.061043,-3.798227 -1.153308,-1.430101 -2.998601,-1.614631 -3.998134,-1.614631 h -4.059644 c -0.553587,0 -0.738117,0.169152 -0.738117,0.738117 v 9.195712 c 0,0.55358 0.169152,0.73811 0.738117,0.73811 h 4.059644 c 3.752095,0 5.059177,-2.245103 5.059177,-5.259081 z m -2.214351,0 c 0,1.737651 -0.169152,3.936621 -3.444546,3.936621 h -1.98369 v -8.027019 h 1.968312 c 3.321527,0 3.459924,2.368125 3.459924,4.090398 z"
             inkscape:connector-curvature="0" />
          <path
             id="path996"
             style="font-style:normal;font-variant:normal;font-weight:bold;font-stretch:normal;font-family:'Latin Modern Sans';-inkscape-font-specification:'Latin Modern Sans Bold';fill:#ffffff;fill-opacity:1;stroke-width:0.26458332"
             d="m -11.4925,92.05493 v -0.123019 c 0,-0.492078 -0.107642,-0.738117 -0.738117,-0.738117 h -5.797294 c -0.553588,0 -0.738117,0.169151 -0.738117,0.738117 v 9.149579 c 0,0.55358 0.169152,0.73811 0.738117,0.73811 h 0.784249 c 0.584343,0 0.738117,-0.1999 0.738117,-0.73811 v -3.859741 h 3.567566 c 0.4767,0 0.738117,-0.107642 0.738117,-0.722739 0,-0.568966 -0.199907,-0.72274 -0.738117,-0.72274 h -3.567566 v -3.029355 h 0.66123 l 3.475301,0.04613 c 0.522833,0 0.876514,0 0.876514,-0.738117 z"
             inkscape:connector-curvature="0" />
        </g>
      </g>
    </g>
    <path
       style="opacity:1;vector-effect:none;fill:#f3e0a6;fill-opacity:1;stroke:#000000;stroke-width:2;stroke-linecap:round;stroke-linejoin:round;stroke-miterlimit:4;stroke-dasharray:none;stroke-dashoffset:0;stroke-opacity:1;paint-order:normal"
       d="m -133.30123,-7.275054 0.46421,5.0037201 1.85678,20.0142059 2.24959,24.248116 h 47.671515 l -4.106369,-44.2623219 h -23.391856 l -0.46421,-5.0037201 z"
       id="rect934"
       inkscape:connector-curvature="0" />
    <rect
       style="opacity:1;vector-effect:none;fill:#c2f7c5;fill-opacity:1;stroke:#000000;stroke-width:2.05090332;stroke-linecap:round;stroke-linejoin:round;stroke-miterlimit:4;stroke-dasharray:none;stroke-dashoffset:0;stroke-opacity:1;paint-order:normal"
       id="rect917-2"
       width="45.287022"
       height="36.429043"
       x="-116.13131"
       y="2.4612908"
       transform="matrix(1,0,-0.30926455,0.95097605,0,0)" />
    <rect
       style="opacity:1;vector-effect:none;fill:#f7c2d7;fill-opacity:1;stroke:#000000;stroke-width:2.00836468;stroke-linecap:round;stroke-linejoin:round;stroke-miterlimit:4;stroke-dasharray:none;stroke-dashoffset:0;stroke-opacity:1;paint-order:normal"
       id="rect917-2-4"
       width="47.499973"
       height="36.061989"
       x="-123.11082"
       y="6.2809801"
       transform="matrix(1,0,-0.12867055,0.9916874,0,0)" />
    <rect
       style="opacity:1;vector-effect:none;fill:#c2ccf7;fill-opacity:1;stroke:#000000;stroke-width:2.12708616;stroke-linecap:round;stroke-linejoin:round;stroke-miterlimit:4;stroke-dasharray:none;stroke-dashoffset:0;stroke-opacity:1;paint-order:normal"
       id="rect917-2-2"
       width="47.920601"
       height="36.140968"
       x="-106.55535"
       y="9.9538403"
       transform="matrix(1,0,-0.46734258,0.8840763,0,0)" />
    <rect
       style="opacity:1;vector-effect:none;fill:#f7eac2;fill-opacity:1;stroke:#000000;stroke-width:2.04269695;stroke-linecap:round;stroke-linejoin:round;stroke-miterlimit:4;stroke-dasharray:none;stroke-dashoffset:0;stroke-opacity:1;paint-order:normal"
       id="rect917-2-0"
       width="49.392235"
       height="29.852257"
       x="-116.15408"
       y="13.912456"
       transform="matrix(1,0,-0.28464768,0.9586322,0,0)" />
    <path
       style="opacity:1;vector-effect:none;fill:#f3d9a6;fill-opacity:1;stroke:#000000;stroke-width:2;stroke-linecap:round;stroke-linejoin:round;stroke-miterlimit:4;stroke-dasharray:none;stroke-dashoffset:0;stroke-opacity:1;paint-order:normal"
       d="m -150.81248,-118.84573 c 4.5244,19.267124 4.19548,30.42594 4.57058,49.266046 h 47.67151 c 0,0 -1.111662,-21.508861 -4.10637,-44.262316 -12.67177,0.81906 -23.39185,0 -23.39185,0 l -0.46421,-5.00373 z"
       id="rect934-6"
       inkscape:connector-curvature="0" />
    <path
       id="rect917-2-5"
       d="m -134.40375,-110.0452 c 10.38237,1.5959 31.95351,2.20763 45.287019,0 -2.803628,13.096974 -11.266209,35.45831 -11.266209,35.45831 h -45.28702 c 0,0 7.54596,-14.627654 11.26621,-35.45831 z"
       style="opacity:1;vector-effect:none;fill:#a8abf5;fill-opacity:1;stroke:#000000;stroke-width:2;stroke-linecap:round;stroke-linejoin:round;stroke-miterlimit:4;stroke-dasharray:none;stroke-dashoffset:0;stroke-opacity:1;paint-order:normal"
       inkscape:connector-curvature="0" />
    <path
       id="rect917-2-4-9"
       d="m -141.43025,-104.50432 c 12.83103,3.02291 34.16215,2.07204 47.499978,0 -3.983699,14.843788 -4.640117,34.924639 -4.640117,34.924639 h -47.499981 c 0,0 3.06068,-19.296768 4.64012,-34.924639 z"
       style="opacity:1;vector-effect:none;fill:#f581b4;fill-opacity:1;stroke:#000000;stroke-width:1.99999988;stroke-linecap:round;stroke-linejoin:round;stroke-miterlimit:4;stroke-dasharray:none;stroke-dashoffset:0;stroke-opacity:1;paint-order:normal"
       inkscape:connector-curvature="0" />
    <path
       id="rect917-2-0-6"
       d="m -166.79414,-102.47282 c 10.27236,2.00206 26.7114,2.499253 49.39223,0 -5.58984,13.662739 0,29.85226 0,29.85226 h -49.39223 c 0,0 2.86298,-20.278835 0,-29.85226 z"
       style="opacity:1;vector-effect:none;fill:#f7eac2;fill-opacity:1;stroke:#000000;stroke-width:2.04269695;stroke-linecap:round;stroke-linejoin:round;stroke-miterlimit:4;stroke-dasharray:none;stroke-dashoffset:0;stroke-opacity:1;paint-order:normal"
       transform="matrix(1,0,-0.28464769,0.9586322,0,0)"
       inkscape:connector-curvature="0" />
  </g>
  <path
     style="opacity:1;vector-effect:none;fill:#e9b96f;fill-opacity:1;stroke:#000000;stroke-width:2;stroke-linecap:round;stroke-linejoin:round;stroke-miterlimit:4;stroke-dasharray:none;stroke-dashoffset:0;stroke-opacity:1;paint-order:normal"
     d="m 3.908455,10.067426 c 0.89837,16.683062 1.51398,28.864576 4.36419,44.64177 h 40.008329 c -2.00206,-13.235869 -3.19484,-26.471737 -3.88181,-39.707605 h -23.40465 l -0.48237,-4.934165 z"
     id="rect1408"
     inkscape:connector-curvature="0"
     sodipodi:nodetypes="ccccccc" />
  <path
     style="opacity:1;vector-effect:none;fill:#ffffff;fill-opacity:1;stroke:#000000;stroke-width:2;stroke-linecap:round;stroke-linejoin:round;stroke-miterlimit:4;stroke-dasharray:none;stroke-dashoffset:0;stroke-opacity:1;paint-order:normal"
     d="m 12.156355,18.675078 h 40.059809 c -0.33414,12.812257 -1.93233,24.423187 -3.93519,36.034118 H 8.221175 c 2.37944,-11.744411 3.67416,-23.355342 3.93518,-36.034118 z"
     id="rect1423-6"
     inkscape:connector-curvature="0"
     sodipodi:nodetypes="ccccc" />
  <path
     style="opacity:1;vector-effect:none;fill:#e9b96f;fill-opacity:1;stroke:#000000;stroke-width:2;stroke-linecap:round;stroke-linejoin:round;stroke-miterlimit:4;stroke-dasharray:none;stroke-dashoffset:0;stroke-opacity:1;paint-order:normal"
     d="m 19.830064,22.994745 h 40.05981 c -3.02661,11.27636 -7.06481,21.495405 -11.50768,31.714451 H 8.322395 c 4.847509,-10.336524 8.582229,-20.55557 11.507669,-31.714451 z"
     id="rect1423"
     inkscape:connector-curvature="0"
     sodipodi:nodetypes="ccccc" />
</svg>
